<?xml version="1.0" encoding="iso-8859-1"?>
<!-- Uploaded to: SVG Repo, www.svgrepo.com, Generator: SVG Repo Mixer Tools -->
<svg height="800px" width="800px" version="1.1" id="Layer_1" xmlns="http://www.w3.org/2000/svg" xmlns:xlink="http://www.w3.org/1999/xlink" 
	 viewBox="0 0 512.009 512.009" xml:space="preserve">
<circle style="fill:#F7B239;" cx="256.004" cy="256.004" r="256.004"/>
<g>
	<path style="fill:#E09B2D;" d="M121.499,390.501C29.407,298.407,22.15,153.608,99.723,53.204
		c-8.593,6.638-16.861,13.895-24.743,21.777c-99.974,99.974-99.974,262.065,0,362.038s262.065,99.974,362.038,0
		c7.881-7.881,15.138-16.15,21.777-24.743C358.392,489.85,213.593,482.593,121.499,390.501z"/>
	<path style="fill:#E09B2D;" d="M256.001,378.454c-9.558,0-19.114-1.303-28.407-3.908c-5.045-1.416-7.989-6.652-6.575-11.699
		c1.414-5.045,6.651-7.991,11.698-6.575c15.234,4.271,31.335,4.271,46.569,0c5.049-1.413,10.283,1.53,11.698,6.575
		c1.414,5.045-1.53,10.283-6.575,11.699C275.115,377.151,265.558,378.454,256.001,378.454z"/>
</g>
<g>
	<path style="fill:#4D4D4D;" d="M357.944,166.633c-19.358,0-35.107,15.749-35.107,35.107s15.749,35.107,35.107,35.107
		s35.107-15.749,35.107-35.107S377.303,166.633,357.944,166.633z"/>
	<path style="fill:#4D4D4D;" d="M184.832,218.274c1.776,2.974,4.925,4.624,8.154,4.623c1.656,0,3.334-0.434,4.858-1.345
		c4.499-2.688,5.966-8.513,3.279-13.012c-10.46-17.506-28.878-27.957-49.27-27.957c-20.393,0-38.812,10.451-49.272,27.957
		c-2.687,4.499-1.22,10.325,3.279,13.012c4.5,2.688,10.325,1.22,13.012-3.279c7-11.718,19.329-18.714,32.98-18.714
		C165.501,199.559,177.832,206.555,184.832,218.274z"/>
	<path style="fill:#4D4D4D;" d="M345.774,277.019c-4.495-2.686-10.324-1.221-13.012,3.279
		c-16.295,27.273-44.991,43.556-76.761,43.556s-60.466-16.283-76.761-43.556c-2.687-4.498-8.512-5.965-13.012-3.279
		c-4.499,2.688-5.966,8.513-3.279,13.012c19.753,33.061,54.538,52.8,93.052,52.8s73.299-19.739,93.052-52.8
		C351.74,285.532,350.271,279.706,345.774,277.019z"/>
</g>
</svg>